<svg xmlns="http://www.w3.org/2000/svg" width="288" height="85" viewBox="0 0 288 85">
<g>
<path d="M 70.08 71.08 L 67.15 74.00 L 38.33 73.93 C21.12,73.89 8.66,73.46 7.42,72.86 C2.34,70.39 2.00,68.26 2.00,38.55 C2.00,8.54 2.32,6.54 7.47,4.19 C9.31,3.36 18.63,3.00 38.62,3.00 L 67.15 3.00 L 70.08 5.92 L 73.00 8.85 L 73.00 68.15 ZM 145.69 35.91 C144.48,37.12 141.69,37.36 140.67,36.33 C140.30,35.97 140.00,28.77 140.00,20.33 L 140.00 5.00 L 143.00 5.00 C145.96,5.00 146.00,5.06 146.00,10.42 L 146.00 15.85 L 149.06 14.32 C155.70,11.01 162.83,15.35 163.73,23.27 C164.78,32.63 156.24,39.87 148.83,35.91 C147.35,35.12 146.48,35.12 145.69,35.91 ZM 182.78 35.44 C176.03,40.17 167.00,33.72 167.00,24.18 C167.00,17.45 173.59,11.90 179.74,13.46 C181.26,13.85 184.41,14.11 186.75,14.04 L 191.00 13.92 L 191.00 24.88 C191.00,36.20 190.62,37.22 186.75,36.22 C185.79,35.97 185.00,35.34 185.00,34.83 C185.00,34.31 184.00,34.59 182.78,35.44 ZM 194.00 77.00 C194.00,81.67 193.67,83.00 192.50,83.00 C191.23,83.00 191.00,80.56 191.00,67.00 C191.00,53.86 191.25,51.00 192.42,51.00 C193.20,51.00 194.00,51.51 194.21,52.14 C194.50,53.00 195.13,53.00 196.73,52.14 C200.14,50.32 206.42,50.76 209.29,53.02 C212.92,55.87 214.47,61.06 213.01,65.47 C210.70,72.48 202.37,76.26 197.44,72.53 C194.35,70.19 194.00,70.65 194.00,77.00 ZM 232.13 72.93 C227.33,75.50 220.13,73.08 217.51,68.02 C214.49,62.18 216.41,54.50 221.47,52.19 C224.75,50.70 231.24,50.64 232.69,52.09 C233.47,52.87 233.96,52.87 234.45,52.09 C234.82,51.49 235.99,51.00 237.06,51.00 C238.86,51.00 239.00,51.78 239.00,61.94 C239.00,72.95 238.26,75.29 235.52,73.02 C234.51,72.18 233.57,72.16 232.13,72.93 ZM 143.03 72.48 C134.93,76.67 126.12,71.06 126.04,61.65 C126.01,58.58 126.69,57.11 129.40,54.40 C132.17,51.63 133.56,51.00 136.95,51.00 C139.23,51.00 142.34,51.64 143.85,52.43 C151.02,56.13 150.51,68.62 143.03,72.48 ZM 113.13 35.43 C107.74,38.22 102.33,37.18 98.00,32.53 C95.67,30.03 95.48,29.02 95.17,17.92 L 94.83 6.00 L 101.00 6.00 L 101.00 16.85 C101.00,28.78 101.98,31.00 107.26,31.00 C112.15,31.00 113.00,28.92 113.00,16.93 L 113.00 6.00 L 119.00 6.00 L 119.00 16.53 C119.00,28.72 117.64,33.10 113.13,35.43 ZM 156.00 65.09 C155.54,72.62 154.52,75.18 152.69,73.35 C152.31,72.98 152.00,67.79 152.00,61.83 C152.00,51.67 152.12,51.00 154.00,51.00 C155.15,51.00 156.00,51.67 156.00,52.57 C156.00,54.00 156.14,54.00 157.57,52.57 C159.63,50.51 165.86,50.56 168.17,52.65 C169.87,54.19 170.13,54.19 171.83,52.65 C174.36,50.36 181.17,50.50 184.14,52.91 C186.32,54.67 186.50,55.55 186.50,64.16 C186.50,71.80 186.23,73.50 185.00,73.50 C183.82,73.50 183.39,71.63 183.00,64.71 C182.48,55.55 181.70,54.03 177.50,54.03 C173.31,54.03 172.52,55.55 172.00,64.70 C171.58,72.03 171.21,73.54 169.75,73.81 C168.21,74.11 168.00,73.25 167.99,66.82 C167.97,58.32 166.50,54.62 162.98,54.21 C158.09,53.63 156.55,56.03 156.00,65.09 ZM 19.38 49.56 C23.36,51.30 24.34,51.30 28.40,49.61 C33.77,47.36 35.00,44.70 35.00,35.28 L 35.00 27.00 L 29.00 27.00 L 29.00 34.80 C29.00,43.36 28.17,45.00 23.84,45.00 C20.08,45.00 19.00,42.56 19.00,34.07 L 19.00 27.00 L 13.00 27.00 L 13.00 35.28 C13.00,44.59 14.22,47.32 19.38,49.56 ZM 201.00 28.53 C200.56,35.60 200.27,36.53 198.46,36.79 C197.34,36.95 196.10,36.77 195.71,36.38 C195.32,35.99 195.00,30.79 195.00,24.83 L 195.00 14.00 L 198.00 14.00 C199.65,14.00 201.00,14.48 201.00,15.06 C201.00,15.65 201.98,15.43 203.22,14.56 C206.43,12.31 210.47,12.64 213.69,15.41 C216.40,17.73 216.50,18.17 216.50,27.16 C216.50,36.46 216.49,36.50 214.00,36.50 C211.57,36.50 211.49,36.26 211.00,28.10 C210.42,18.31 208.98,16.38 204.24,19.03 C201.69,20.46 201.47,21.12 201.00,28.53 ZM 116.28 72.64 C108.25,76.04 98.73,72.23 95.36,64.28 C89.73,50.97 102.66,38.16 116.43,43.42 C121.94,45.52 123.72,47.43 122.06,49.43 C121.05,50.64 120.35,50.50 117.30,48.43 C108.72,42.61 97.93,48.08 98.04,58.20 C98.14,68.09 108.96,73.23 117.50,67.44 C120.11,65.66 121.59,65.19 122.31,65.91 C123.70,67.30 120.52,70.84 116.28,72.64 ZM 49.54 50.29 C52.37,51.03 56.13,50.18 58.94,48.14 C62.24,45.75 62.52,44.35 59.98,42.99 C58.27,42.07 57.48,42.16 56.09,43.42 C50.30,48.66 42.47,39.53 48.00,34.00 C50.40,31.60 53.71,31.42 56.09,33.58 C57.46,34.82 58.28,34.92 59.92,34.04 C62.66,32.58 62.54,31.57 59.37,29.07 C54.20,25.01 44.54,27.12 41.52,32.97 C37.90,39.96 41.73,48.23 49.54,50.29 ZM 273.89 80.42 C271.99,82.83 268.18,83.84 266.67,82.33 C265.16,80.83 266.17,79.11 268.72,78.82 C270.39,78.62 271.99,77.51 272.87,75.94 C274.19,73.56 273.97,72.67 269.65,63.11 C267.09,57.46 265.00,52.42 265.00,51.92 C265.00,51.41 265.85,51.00 266.88,51.00 C268.29,51.00 269.59,53.01 272.06,58.99 C273.87,63.38 275.61,66.72 275.92,66.41 C276.24,66.10 277.67,62.62 279.11,58.67 C281.13,53.16 282.23,51.43 283.87,51.18 C285.96,50.87 285.95,50.99 283.10,58.68 C276.74,75.81 275.84,77.93 273.89,80.42 ZM 197.03 68.18 C199.46,70.62 200.58,71.08 202.78,70.54 C207.18,69.46 209.45,66.52 209.45,61.89 C209.45,54.43 201.48,51.22 196.45,56.65 C193.04,60.32 193.25,64.40 197.03,68.18 ZM 224.00 69.34 C228.95,72.76 235.01,68.78 234.98,62.14 C234.97,57.94 234.34,56.74 231.32,55.15 C225.92,52.31 219.99,55.81 220.02,61.82 C220.03,66.02 220.52,66.94 224.00,69.34 ZM 133.08 68.41 C136.65,71.42 137.15,71.49 140.94,69.53 C146.39,66.71 146.88,59.13 141.84,55.60 C133.50,49.76 125.25,61.83 133.08,68.41 ZM 247.00 65.09 C246.54,72.62 245.52,75.18 243.69,73.35 C243.31,72.98 243.00,67.79 243.00,61.83 C243.00,51.67 243.12,51.00 245.00,51.00 C246.10,51.00 247.00,51.47 247.00,52.04 C247.00,52.75 247.60,52.75 248.93,52.04 C252.00,50.39 257.56,50.83 260.14,52.91 C262.32,54.67 262.50,55.55 262.50,64.16 C262.50,71.80 262.23,73.50 261.00,73.50 C259.82,73.50 259.44,71.82 259.20,65.53 C258.88,56.92 257.45,54.00 253.54,54.00 C248.87,54.00 247.53,56.27 247.00,65.09 ZM 128.80 29.04 C128.53,35.67 128.27,36.53 126.46,36.79 C125.34,36.95 124.10,36.77 123.71,36.38 C123.32,35.99 123.00,30.73 123.00,24.70 L 123.00 13.74 L 126.57 14.32 C128.53,14.64 131.20,14.41 132.50,13.82 C135.69,12.37 137.98,13.35 137.32,15.88 C137.01,17.06 135.63,18.14 133.97,18.51 C129.81,19.42 129.13,20.81 128.80,29.04 ZM 174.45 29.55 C177.38,32.47 179.97,32.66 183.06,30.16 C184.60,28.91 185.33,27.24 185.33,25.00 C185.33,21.36 182.21,18.00 178.84,18.00 C176.28,18.00 172.00,22.37 172.00,25.00 C172.00,26.15 173.10,28.20 174.45,29.55 ZM 148.22 30.44 C151.11,32.47 153.29,32.41 155.85,30.25 C159.29,27.34 159.60,23.51 156.64,20.55 C153.71,17.62 151.38,17.35 148.22,19.56 C145.10,21.75 145.10,28.25 148.22,30.44 Z" fill="rgb(17,17,17)"/>
<path d="M 0.00 42.50 L 0.00 0.00 L 144.00 0.00 L 288.00 0.00 L 288.00 42.50 L 288.00 85.00 L 144.00 85.00 L 0.00 85.00 L 0.00 42.50 ZM 194.00 77.00 C194.00,70.65 194.35,70.19 197.44,72.53 C202.37,76.26 210.70,72.48 213.01,65.47 C214.47,61.06 212.92,55.87 209.29,53.02 C206.42,50.76 200.14,50.32 196.73,52.14 C195.13,53.00 194.50,53.00 194.21,52.14 C194.00,51.51 193.20,51.00 192.42,51.00 C191.25,51.00 191.00,53.86 191.00,67.00 C191.00,80.56 191.23,83.00 192.50,83.00 C193.67,83.00 194.00,81.67 194.00,77.00 ZM 273.89 80.42 C275.84,77.93 276.74,75.81 283.10,58.68 C285.95,50.99 285.96,50.87 283.87,51.18 C282.23,51.43 281.13,53.16 279.11,58.67 C277.67,62.62 276.24,66.10 275.92,66.41 C275.61,66.72 273.87,63.38 272.06,58.99 C269.59,53.01 268.29,51.00 266.88,51.00 C265.85,51.00 265.00,51.41 265.00,51.92 C265.00,52.42 267.09,57.46 269.65,63.11 C273.97,72.67 274.19,73.56 272.87,75.94 C271.99,77.51 270.39,78.62 268.72,78.82 C266.17,79.11 265.16,80.83 266.67,82.33 C268.18,83.84 271.99,82.83 273.89,80.42 ZM 70.08 71.08 L 73.00 68.15 L 73.00 38.50 L 73.00 8.85 L 70.08 5.92 L 67.15 3.00 L 38.62 3.00 C18.63,3.00 9.31,3.36 7.47,4.19 C2.32,6.54 2.00,8.54 2.00,38.55 C2.00,68.26 2.34,70.39 7.42,72.86 C8.66,73.46 21.12,73.89 38.33,73.93 L 67.15 74.00 L 70.08 71.08 ZM 116.28 72.64 C120.52,70.84 123.70,67.30 122.31,65.91 C121.59,65.19 120.11,65.66 117.50,67.44 C108.96,73.23 98.14,68.09 98.04,58.20 C97.93,48.08 108.72,42.61 117.30,48.43 C120.35,50.50 121.05,50.64 122.06,49.43 C123.72,47.43 121.94,45.52 116.43,43.42 C102.66,38.16 89.73,50.97 95.36,64.28 C98.73,72.23 108.25,76.04 116.28,72.64 ZM 143.03 72.48 C150.51,68.62 151.02,56.13 143.85,52.43 C142.34,51.64 139.23,51.00 136.95,51.00 C133.56,51.00 132.17,51.63 129.40,54.40 C126.69,57.11 126.01,58.58 126.04,61.65 C126.12,71.06 134.93,76.67 143.03,72.48 ZM 156.00 65.09 C156.55,56.03 158.09,53.63 162.98,54.21 C166.50,54.62 167.97,58.32 167.99,66.82 C168.00,73.25 168.21,74.11 169.75,73.81 C171.21,73.54 171.58,72.03 172.00,64.70 C172.52,55.55 173.31,54.03 177.50,54.03 C181.70,54.03 182.48,55.55 183.00,64.71 C183.39,71.63 183.82,73.50 185.00,73.50 C186.23,73.50 186.50,71.80 186.50,64.16 C186.50,55.55 186.32,54.67 184.14,52.91 C181.17,50.50 174.36,50.36 171.83,52.65 C170.13,54.19 169.87,54.19 168.17,52.65 C165.86,50.56 159.63,50.51 157.57,52.57 C156.14,54.00 156.00,54.00 156.00,52.57 C156.00,51.67 155.15,51.00 154.00,51.00 C152.12,51.00 152.00,51.67 152.00,61.83 C152.00,67.79 152.31,72.98 152.69,73.35 C154.52,75.18 155.54,72.62 156.00,65.09 ZM 232.13 72.93 C233.57,72.16 234.51,72.18 235.52,73.02 C238.26,75.29 239.00,72.95 239.00,61.94 C239.00,51.78 238.86,51.00 237.06,51.00 C235.99,51.00 234.82,51.49 234.45,52.09 C233.96,52.87 233.47,52.87 232.69,52.09 C231.24,50.64 224.75,50.70 221.47,52.19 C216.41,54.50 214.49,62.18 217.51,68.02 C220.13,73.08 227.33,75.50 232.13,72.93 ZM 247.00 65.09 C247.53,56.27 248.87,54.00 253.54,54.00 C257.45,54.00 258.88,56.92 259.20,65.53 C259.44,71.82 259.82,73.50 261.00,73.50 C262.23,73.50 262.50,71.80 262.50,64.16 C262.50,55.55 262.32,54.67 260.14,52.91 C257.56,50.83 252.00,50.39 248.93,52.04 C247.60,52.75 247.00,52.75 247.00,52.04 C247.00,51.47 246.10,51.00 245.00,51.00 C243.12,51.00 243.00,51.67 243.00,61.83 C243.00,67.79 243.31,72.98 243.69,73.35 C245.52,75.18 246.54,72.62 247.00,65.09 ZM 113.13 35.43 C117.64,33.10 119.00,28.72 119.00,16.53 L 119.00 6.00 L 116.00 6.00 L 113.00 6.00 L 113.00 16.93 C113.00,28.92 112.15,31.00 107.26,31.00 C101.98,31.00 101.00,28.78 101.00,16.85 L 101.00 6.00 L 97.92 6.00 L 94.83 6.00 L 95.17 17.92 C95.48,29.02 95.67,30.03 98.00,32.53 C102.33,37.18 107.74,38.22 113.13,35.43 ZM 128.80 29.04 C129.13,20.81 129.81,19.42 133.97,18.51 C135.63,18.14 137.01,17.06 137.32,15.88 C137.98,13.35 135.69,12.37 132.50,13.82 C131.20,14.41 128.53,14.64 126.57,14.32 L 123.00 13.74 L 123.00 24.70 C123.00,30.73 123.32,35.99 123.71,36.38 C124.10,36.77 125.34,36.95 126.46,36.79 C128.27,36.53 128.53,35.67 128.80,29.04 ZM 145.69 35.91 C146.48,35.12 147.35,35.12 148.83,35.91 C156.24,39.87 164.78,32.63 163.73,23.27 C162.83,15.35 155.70,11.01 149.06,14.32 L 146.00 15.85 L 146.00 10.42 C146.00,5.06 145.96,5.00 143.00,5.00 L 140.00 5.00 L 140.00 20.33 C140.00,28.77 140.30,35.97 140.67,36.33 C141.69,37.36 144.48,37.12 145.69,35.91 ZM 182.78 35.44 C184.00,34.59 185.00,34.31 185.00,34.83 C185.00,35.34 185.79,35.97 186.75,36.22 C190.62,37.22 191.00,36.20 191.00,24.88 L 191.00 13.92 L 186.75 14.04 C184.41,14.11 181.26,13.85 179.74,13.46 C173.59,11.90 167.00,17.45 167.00,24.18 C167.00,33.72 176.03,40.17 182.78,35.44 ZM 201.00 28.53 C201.47,21.12 201.69,20.46 204.24,19.03 C208.98,16.38 210.42,18.31 211.00,28.10 C211.49,36.26 211.57,36.50 214.00,36.50 C216.49,36.50 216.50,36.46 216.50,27.16 C216.50,18.17 216.40,17.73 213.69,15.41 C210.47,12.64 206.43,12.31 203.22,14.56 C201.98,15.43 201.00,15.65 201.00,15.06 C201.00,14.48 199.65,14.00 198.00,14.00 L 195.00 14.00 L 195.00 24.83 C195.00,30.79 195.32,35.99 195.71,36.38 C196.10,36.77 197.34,36.95 198.46,36.79 C200.27,36.53 200.56,35.60 201.00,28.53 ZM 197.03 68.18 C193.25,64.40 193.04,60.32 196.45,56.65 C201.48,51.22 209.45,54.43 209.45,61.89 C209.45,66.52 207.18,69.46 202.78,70.54 C200.58,71.08 199.46,70.62 197.03,68.18 ZM 19.38 49.56 C14.22,47.32 13.00,44.59 13.00,35.28 L 13.00 27.00 L 16.00 27.00 L 19.00 27.00 L 19.00 34.07 C19.00,42.56 20.08,45.00 23.84,45.00 C28.17,45.00 29.00,43.36 29.00,34.80 L 29.00 27.00 L 32.00 27.00 L 35.00 27.00 L 35.00 35.28 C35.00,44.70 33.77,47.36 28.40,49.61 C24.34,51.30 23.36,51.30 19.38,49.56 ZM 49.54 50.29 C41.73,48.23 37.90,39.96 41.52,32.97 C44.54,27.12 54.20,25.01 59.37,29.07 C62.54,31.57 62.66,32.58 59.92,34.04 C58.28,34.92 57.46,34.82 56.09,33.58 C53.71,31.42 50.40,31.60 48.00,34.00 C42.47,39.53 50.30,48.66 56.09,43.42 C57.48,42.16 58.27,42.07 59.98,42.99 C62.52,44.35 62.24,45.75 58.94,48.14 C56.13,50.18 52.37,51.03 49.54,50.29 ZM 133.08 68.41 C125.25,61.83 133.50,49.76 141.84,55.60 C146.88,59.13 146.39,66.71 140.94,69.53 C137.15,71.49 136.65,71.42 133.08,68.41 ZM 224.00 69.34 C220.52,66.94 220.03,66.02 220.02,61.82 C219.99,55.81 225.92,52.31 231.32,55.15 C234.34,56.74 234.97,57.94 234.98,62.14 C235.01,68.78 228.95,72.76 224.00,69.34 ZM 148.22 30.44 C145.10,28.25 145.10,21.75 148.22,19.56 C151.38,17.35 153.71,17.62 156.64,20.55 C159.60,23.51 159.29,27.34 155.85,30.25 C153.29,32.41 151.11,32.47 148.22,30.44 ZM 174.45 29.55 C173.10,28.20 172.00,26.15 172.00,25.00 C172.00,22.37 176.28,18.00 178.84,18.00 C182.21,18.00 185.33,21.36 185.33,25.00 C185.33,27.24 184.60,28.91 183.06,30.16 C179.97,32.66 177.38,32.47 174.45,29.55 Z" fill="rgb(252,252,252)"/>
</g>
</svg>